<svg width="386" height="123" viewBox="0 0 386 123" fill="none" xmlns="http://www.w3.org/2000/svg">
<path d="M69.9079 68.2166C76.6272 68.2166 81.1068 71.3523 81.1068 77.0638C81.1068 82.85 76.6272 85.911 69.9079 85.911H57.9996V94.3476H52.0268V68.2166H69.9079ZM69.4226 80.9835C72.7823 80.9835 75.0221 80.0875 75.0221 77.1011C75.0221 74.1147 72.7823 73.2188 69.4226 73.2188H57.9996V80.9835H69.4226ZM91.0112 94.3476H85.2251V73.7788H91.0112V78.0344C92.6911 74.936 96.2374 73.3308 100.194 73.3308V78.2957C95.7148 78.2957 92.2431 80.0502 91.0112 83.6712V94.3476ZM115.03 95.1688C106.892 95.1688 101.89 90.9132 101.89 84.0818C101.89 77.2131 106.892 72.9949 115.03 72.9949C123.131 72.9949 128.17 77.2131 128.17 84.0818C128.17 90.9132 123.131 95.1688 115.03 95.1688ZM115.03 90.4653C119.398 90.4653 122.608 88.3374 122.608 84.0818C122.608 79.7889 119.398 77.6984 115.03 77.6984C110.7 77.6984 107.489 79.7889 107.489 84.0818C107.489 88.3374 110.7 90.4653 115.03 90.4653ZM147.544 95.0942C143.326 95.0942 140.265 93.265 138.585 90.9879V101.814H132.799V73.7788H138.585V77.1011C140.265 74.824 143.326 72.9949 147.544 72.9949C154.077 72.9949 158.631 77.3251 158.631 84.0445C158.631 90.7639 154.077 95.0942 147.544 95.0942ZM146.088 77.8104C143.065 77.8104 140.414 78.8183 138.622 81.1701V86.9189C140.414 89.2707 143.065 90.2786 146.088 90.2786C150.568 90.2786 153.106 88.0761 153.106 84.0445C153.106 80.0129 150.568 77.8104 146.088 77.8104Z" fill="#B700FF"/>
<path d="M192.393 68.2166H198.776V94.3476H192.803V76.1679L181.343 90.1666H181.044L169.584 76.1679V94.3476H163.798V68.2166H170.293L181.343 82.0287L192.393 68.2166ZM230.133 94.3476L227.333 88.8227H211.543L208.743 94.3476H202.36L216.209 68.2166H222.742L236.591 94.3476H230.133ZM214.007 83.9698H224.832L219.419 73.3308L214.007 83.9698ZM270.185 94.3476H263.018L252.939 82.066L246.107 87.8522V94.3476H240.135V68.2166H246.107V81.4687L261.637 68.2166H269.476L257.306 78.5197L270.185 94.3476ZM279.463 89.3454H300.442V94.3476H273.527V68.2166H300.069V73.2188H279.463V78.5943H296.672V83.5965H279.463V89.3454ZM335.621 94.3476H328.491L320.988 85.463H311.543V94.3476H305.608V68.2166H323.638C330.022 68.2166 334.837 71.1657 334.837 76.8398C334.837 81.2821 331.888 84.0445 327.558 85.0524L335.621 94.3476ZM311.506 80.5355H323.302C326.438 80.5355 328.752 79.7889 328.752 76.8772C328.752 73.9654 326.438 73.2188 323.302 73.2188H311.506V80.5355Z" fill="white"/>
<path d="M179.362 119.303V108.96H180.311V110.842H180.14C180.316 110.22 180.653 109.727 181.151 109.364C181.649 109.001 182.25 108.82 182.955 108.82C183.629 108.82 184.215 108.981 184.713 109.302C185.221 109.624 185.61 110.075 185.88 110.655C186.16 111.236 186.3 111.926 186.3 112.724C186.3 113.522 186.16 114.217 185.88 114.808C185.61 115.389 185.226 115.84 184.729 116.162C184.231 116.473 183.64 116.628 182.955 116.628C182.25 116.628 181.649 116.447 181.151 116.084C180.653 115.721 180.316 115.239 180.14 114.637H180.311V119.303H179.362ZM182.815 115.835C183.583 115.835 184.195 115.565 184.651 115.026C185.107 114.487 185.335 113.72 185.335 112.724C185.335 111.739 185.107 110.977 184.651 110.438C184.195 109.898 183.583 109.629 182.815 109.629C182.048 109.629 181.436 109.898 180.98 110.438C180.524 110.977 180.296 111.739 180.296 112.724C180.296 113.72 180.524 114.487 180.98 115.026C181.436 115.565 182.048 115.835 182.815 115.835ZM191.311 116.628C190.606 116.628 189.994 116.467 189.476 116.146C188.957 115.824 188.553 115.373 188.262 114.793C187.982 114.212 187.842 113.522 187.842 112.724C187.842 111.936 187.982 111.252 188.262 110.671C188.553 110.08 188.957 109.624 189.476 109.302C189.994 108.981 190.606 108.82 191.311 108.82C192.027 108.82 192.644 108.981 193.162 109.302C193.68 109.624 194.08 110.08 194.36 110.671C194.65 111.252 194.795 111.936 194.795 112.724C194.795 113.522 194.65 114.212 194.36 114.793C194.08 115.373 193.68 115.824 193.162 116.146C192.644 116.467 192.027 116.628 191.311 116.628ZM191.311 115.835C192.089 115.835 192.701 115.565 193.146 115.026C193.603 114.487 193.831 113.72 193.831 112.724C193.831 111.739 193.603 110.977 193.146 110.438C192.701 109.898 192.089 109.629 191.311 109.629C190.554 109.629 189.947 109.898 189.491 110.438C189.035 110.977 188.807 111.739 188.807 112.724C188.807 113.72 189.035 114.487 189.491 115.026C189.947 115.565 190.554 115.835 191.311 115.835ZM198.715 116.504L195.978 108.96H196.989L199.399 115.944H199.011L201.53 108.96H202.464L204.937 115.944H204.548L207.005 108.96H207.985L205.232 116.504H204.252L201.701 109.395H202.277L199.695 116.504H198.715ZM212.902 116.628C212.124 116.628 211.455 116.473 210.896 116.162C210.336 115.85 209.905 115.405 209.605 114.824C209.304 114.243 209.153 113.554 209.153 112.755C209.153 111.967 209.304 111.283 209.605 110.702C209.905 110.111 210.32 109.65 210.849 109.318C211.388 108.986 212.005 108.82 212.7 108.82C213.374 108.82 213.944 108.97 214.411 109.271C214.888 109.561 215.251 109.981 215.5 110.531C215.759 111.07 215.888 111.723 215.888 112.491V112.926H209.838V112.226H215.297L215.048 112.429C215.048 111.537 214.851 110.842 214.457 110.344C214.063 109.836 213.483 109.582 212.715 109.582C212.145 109.582 211.663 109.717 211.269 109.987C210.875 110.246 210.579 110.609 210.382 111.075C210.185 111.532 210.087 112.06 210.087 112.662V112.74C210.087 113.403 210.19 113.968 210.398 114.435C210.616 114.891 210.937 115.239 211.362 115.477C211.787 115.716 212.29 115.835 212.871 115.835C213.338 115.835 213.773 115.762 214.177 115.617C214.592 115.472 214.997 115.228 215.391 114.886L215.764 115.602C215.432 115.913 215.007 116.162 214.489 116.348C213.97 116.535 213.441 116.628 212.902 116.628ZM217.822 116.504V108.96H218.756V110.733H218.6C218.797 110.121 219.113 109.66 219.549 109.349C219.995 109.038 220.576 108.856 221.291 108.804L221.68 108.773L221.773 109.598L221.104 109.675C220.368 109.748 219.798 109.992 219.393 110.406C218.989 110.821 218.787 111.381 218.787 112.086V116.504H217.822ZM226.33 116.628C225.552 116.628 224.883 116.473 224.323 116.162C223.763 115.85 223.333 115.405 223.032 114.824C222.731 114.243 222.581 113.554 222.581 112.755C222.581 111.967 222.731 111.283 223.032 110.702C223.333 110.111 223.748 109.65 224.276 109.318C224.816 108.986 225.433 108.82 226.127 108.82C226.801 108.82 227.372 108.97 227.838 109.271C228.315 109.561 228.678 109.981 228.927 110.531C229.186 111.07 229.316 111.723 229.316 112.491V112.926H223.265V112.226H228.725L228.476 112.429C228.476 111.537 228.279 110.842 227.885 110.344C227.491 109.836 226.91 109.582 226.143 109.582C225.573 109.582 225.09 109.717 224.696 109.987C224.302 110.246 224.007 110.609 223.81 111.075C223.613 111.532 223.514 112.06 223.514 112.662V112.74C223.514 113.403 223.618 113.968 223.825 114.435C224.043 114.891 224.365 115.239 224.79 115.477C225.215 115.716 225.718 115.835 226.298 115.835C226.765 115.835 227.201 115.762 227.605 115.617C228.02 115.472 228.424 115.228 228.818 114.886L229.192 115.602C228.86 115.913 228.435 116.162 227.916 116.348C227.398 116.535 226.869 116.628 226.33 116.628ZM234.128 116.628C233.454 116.628 232.862 116.473 232.354 116.162C231.857 115.84 231.468 115.389 231.188 114.808C230.918 114.217 230.783 113.522 230.783 112.724C230.783 111.926 230.918 111.236 231.188 110.655C231.457 110.075 231.841 109.624 232.339 109.302C232.847 108.981 233.443 108.82 234.128 108.82C234.833 108.82 235.434 109.001 235.932 109.364C236.43 109.727 236.761 110.215 236.927 110.826H236.756V105.538H237.705V116.504H236.772V114.622H236.927C236.761 115.233 236.43 115.721 235.932 116.084C235.434 116.447 234.833 116.628 234.128 116.628ZM234.252 115.835C235.03 115.835 235.641 115.565 236.087 115.026C236.544 114.487 236.772 113.72 236.772 112.724C236.772 111.739 236.544 110.977 236.087 110.438C235.641 109.898 235.03 109.629 234.252 109.629C233.495 109.629 232.888 109.898 232.432 110.438C231.976 110.977 231.748 111.739 231.748 112.724C231.748 113.72 231.976 114.487 232.432 115.026C232.888 115.565 233.495 115.835 234.252 115.835ZM247.693 116.628C246.988 116.628 246.387 116.447 245.889 116.084C245.391 115.721 245.054 115.233 244.878 114.622H245.049V116.504H244.1V105.538H245.049V110.826H244.878C245.054 110.215 245.391 109.727 245.889 109.364C246.387 109.001 246.988 108.82 247.693 108.82C248.378 108.82 248.969 108.981 249.467 109.302C249.964 109.624 250.348 110.075 250.618 110.655C250.898 111.236 251.038 111.926 251.038 112.724C251.038 113.522 250.898 114.217 250.618 114.808C250.348 115.389 249.959 115.84 249.451 116.162C248.953 116.473 248.367 116.628 247.693 116.628ZM247.553 115.835C248.321 115.835 248.933 115.565 249.389 115.026C249.845 114.487 250.073 113.72 250.073 112.724C250.073 111.739 249.845 110.977 249.389 110.438C248.933 109.898 248.321 109.629 247.553 109.629C246.786 109.629 246.174 109.898 245.718 110.438C245.262 110.977 245.034 111.739 245.034 112.724C245.034 113.72 245.262 114.487 245.718 115.026C246.174 115.565 246.786 115.835 247.553 115.835ZM253.92 119.303L255.258 116.255V116.69L251.96 108.96H253.018L255.88 115.928H255.491L258.369 108.96H259.395L254.947 119.303H253.92Z" fill="#DBDBDB"/>
<g clip-path="url(#clip0_19_23)">
<path d="M288.608 109.27C288.608 108.636 288.608 108.139 288.595 107.679H292.681C295.94 107.679 297.031 108.698 297.031 111.967V112.216C297.031 115.485 295.94 116.504 292.669 116.504H288.595C288.608 116.007 288.608 115.485 288.608 114.764V109.271V109.27ZM290.5 109.32V114.863H292.668C294.585 114.863 295.087 114.329 295.087 112.142V112.043C295.087 109.855 294.585 109.322 292.68 109.322H290.498L290.5 109.32Z" fill="#D9D9D9"/>
<path d="M298.612 109.282C298.612 108.635 298.612 108.151 298.6 107.679H300.568C300.556 108.151 300.556 108.636 300.556 109.282V114.787C300.556 115.495 300.556 115.994 300.568 116.502H298.6C298.612 116.006 298.612 115.495 298.612 114.787V109.282Z" fill="#D9D9D9"/>
<path d="M302.136 112.289V111.892C302.136 108.536 303.239 107.505 306.473 107.505C309.706 107.505 310.747 108.201 310.722 110.624L308.867 110.661H308.855C308.855 109.53 308.492 109.195 306.535 109.195C304.579 109.195 304.078 109.766 304.078 112.04V112.14C304.078 114.502 304.579 115.036 306.522 115.036C308.465 115.036 308.917 114.762 308.904 113.309V113.296H305.858V111.855H310.747C310.734 112.265 310.734 112.738 310.734 113.049C310.734 116.007 309.756 116.678 306.485 116.678C303.214 116.678 302.136 115.634 302.136 112.291V112.289Z" fill="#D9D9D9"/>
<path d="M312.303 109.282C312.303 108.635 312.303 108.151 312.291 107.679H314.259C314.247 108.151 314.247 108.636 314.247 109.282V114.787C314.247 115.495 314.247 115.994 314.259 116.502H312.291C312.303 116.006 312.303 115.495 312.303 114.787V109.282Z" fill="#D9D9D9"/>
<path d="M318.86 109.369H317.781C317.28 109.369 316.616 109.369 315.538 109.381V107.679H324.087V109.381C323.185 109.369 322.507 109.369 322.006 109.369H320.753V114.787C320.753 115.495 320.753 115.994 320.765 116.502H318.848C318.861 116.006 318.861 115.495 318.861 114.787V109.369H318.86Z" fill="#D9D9D9"/>
<path d="M329.554 107.679C330.193 109.556 332.048 114.812 332.675 116.502H330.581L330.042 114.837H325.942L325.391 116.502H323.36C324.012 114.812 325.917 109.555 326.569 107.679H329.553H329.554ZM326.47 113.271H329.528L329.253 112.414C328.915 111.345 328.577 110.251 328.288 109.369H327.725C327.436 110.265 327.086 111.357 326.747 112.439L326.471 113.272L326.47 113.271Z" fill="#D9D9D9"/>
<path d="M333.793 116.502C333.805 116.006 333.805 115.471 333.805 114.763V109.294C333.805 108.635 333.805 108.15 333.793 107.679H335.71C335.697 108.151 335.697 108.623 335.697 109.258V114.814H337.628C338.504 114.814 339.457 114.814 340.46 114.802V116.504H333.792L333.793 116.502Z" fill="#D9D9D9"/>
<path d="M284.331 113.582C284.543 113.582 284.716 113.755 284.716 113.967V115.56C284.716 117.731 282.958 119.491 280.789 119.491H275.532C275.428 119.491 275.356 119.386 275.393 119.289L276.4 116.634C276.422 116.576 276.478 116.538 276.539 116.538H280.695C281.286 116.538 281.765 116.058 281.765 115.466V113.969C281.765 113.756 281.592 113.583 281.38 113.583H277.772C277.667 113.583 277.596 113.478 277.633 113.381L278.641 110.726C278.663 110.668 278.719 110.63 278.78 110.63H281.765V108.061C281.765 107.849 281.592 107.675 281.38 107.675H275.531C275.427 107.675 275.355 107.57 275.392 107.473L276.4 104.817C276.422 104.759 276.478 104.721 276.539 104.721H281.38C281.592 104.721 281.765 104.893 281.765 105.106V107.289C281.765 107.502 281.938 107.675 282.15 107.675H284.331C284.543 107.675 284.716 107.848 284.716 108.061V109.895C284.716 110.202 284.582 110.494 284.349 110.695L281.892 112.913C281.63 113.15 281.798 113.584 282.15 113.584C283.083 113.584 284.331 113.583 284.331 113.583V113.582Z" fill="url(#paint0_linear_19_23)"/>
<path d="M269.029 116.544H274.233C274.336 116.544 274.406 116.645 274.371 116.742L273.39 119.402C273.369 119.46 273.314 119.497 273.253 119.497H269.029C266.817 119.497 265.024 117.702 265.024 115.487V108.067C265.024 107.854 265.197 107.681 265.409 107.681H267.59C267.802 107.681 267.975 107.508 267.975 107.296V105.114C267.975 104.901 268.148 104.728 268.36 104.728H274.234C274.337 104.728 274.407 104.829 274.372 104.926L273.392 107.586C273.37 107.644 273.315 107.681 273.254 107.681H268.359C268.146 107.681 267.974 107.854 267.974 108.067V110.636H272.087C272.19 110.636 272.26 110.737 272.225 110.834L271.245 113.494C271.223 113.552 271.169 113.589 271.107 113.589H267.975V115.487C267.975 116.071 268.447 116.544 269.03 116.544H269.029Z" fill="#D9D9D9"/>
</g>
<g clip-path="url(#clip1_19_23)">
<path d="M204.84 47.7628C201.967 51.9302 195.077 51.4626 192.82 46.8886C192.861 46.9699 192.909 47.0512 192.957 47.1326C195.461 46.5634 197.575 44.9709 198.82 42.8229C199.962 45.2555 202.165 47.0919 204.84 47.7628Z" fill="white"/>
<path d="M197.978 38.3166V38.3302C198.054 42.2333 194.455 45.6079 190.521 45.3301C185.54 45.2352 182.161 39.3941 184.582 35.0979C187.066 36.1957 190.336 35.9924 192.642 34.6304C193.791 35.7688 195.221 36.5819 196.808 36.9953H196.815C197.164 37.0834 197.52 37.1511 197.889 37.1986C197.951 37.5645 197.978 37.9372 197.978 38.3166Z" fill="white"/>
<path d="M214.179 38.9807C214.241 42.4298 211.422 45.6011 207.946 45.9535C203.157 46.665 198.868 41.82 200.236 37.2121C200.626 37.1647 201.009 37.0901 201.385 36.9953H201.392C202.494 36.7107 203.506 36.2363 204.409 35.5926C206.92 37.4696 210.834 37.822 213.673 36.3854C214.001 37.185 214.179 38.0659 214.179 38.9807Z" fill="white"/>
<path d="M191.349 33.0108C191.349 33.0108 191.397 32.9905 191.417 32.9769C187.907 34.9217 182.995 33.1531 181.572 29.4059C179.574 24.8522 183.365 19.4244 188.4 19.7361C188.783 21.4709 189.618 23.1107 190.795 24.4456C189.515 27.0816 189.727 30.5239 191.349 33.0041V33.0108Z" fill="white"/>
<path d="M216.799 28.22C216.943 33.6139 210.45 37.1511 205.921 34.156C205.942 34.1696 205.955 34.1831 205.976 34.1831C208.336 31.6285 208.918 27.5424 207.413 24.4456C208.254 23.4902 208.904 22.3856 209.363 21.2066C213.392 21.0033 216.813 24.222 216.799 28.22Z" fill="white"/>
<path d="M206.79 21.8232C206.633 22.0943 206.462 22.3518 206.27 22.6025C202.897 18.0827 195.324 18.0759 191.93 22.6025C187.558 17.0663 191.964 8.3249 199.1 8.52819C205.832 8.352 210.32 16.1854 206.79 21.8232Z" fill="white"/>
<path d="M206.181 28.5859C206.085 30.856 204.786 32.9973 202.843 34.1899H202.836C202.377 34.4745 201.898 34.6981 201.385 34.8675C201.385 34.8675 201.365 34.8811 201.351 34.8811C199.921 35.3622 198.266 35.3622 196.829 34.8675H196.822C195.905 34.5558 195.05 34.0612 194.338 33.4106C193.832 32.9431 193.394 32.4281 193.039 31.8385H193.032C193.032 31.8385 193.025 31.8182 193.025 31.8114C190.158 27.3798 193.777 21.0304 199.114 21.1998C203.102 21.1388 206.469 24.6693 206.195 28.5859H206.181Z" fill="white"/>
<path d="M206.599 6.28525C206.599 6.28525 206.202 6.929 206.161 7.46432C206.161 7.46432 203.267 6.89512 199.928 5.70249C199.504 5.55342 199.066 5.38401 198.628 5.20783C196.665 4.43533 194.653 3.43922 193.073 2.22627C193.073 2.22627 192.957 1.45378 193.866 0.0714188C193.866 0.0714188 195.789 1.77904 198.614 3.41212C199.066 3.66961 199.545 3.93389 200.038 4.17106C202.015 5.18072 204.293 6.04131 206.599 6.28525Z" fill="white"/>
<path d="M200.359 10.5001C200.359 10.5001 199.613 10.351 199.093 10.5001C199.093 10.5001 198.724 8.19616 198.628 5.20783C198.608 4.63184 198.601 4.02876 198.614 3.41212C199.066 3.66962 199.545 3.93389 200.037 4.17106C199.983 4.67928 199.942 5.1875 199.928 5.70249C199.86 7.29492 199.962 8.94155 200.359 10.5001Z" fill="white"/>
</g>
<defs>
<linearGradient id="paint0_linear_19_23" x1="275.383" y1="112.106" x2="284.716" y2="112.106" gradientUnits="userSpaceOnUse">
<stop stop-color="#FF2F01"/>
<stop offset="1" stop-color="#FC8900"/>
</linearGradient>
<clipPath id="clip0_19_23">
<rect width="75.4375" height="14.7764" fill="white" transform="translate(265.024 104.721)"/>
</clipPath>
<clipPath id="clip1_19_23">
<rect width="35.7745" height="50.5509" fill="white" transform="translate(181.032 0.0714188)"/>
</clipPath>
</defs>
</svg>
